<svg width="48" height="50" viewBox="0 0 48 50" fill="none" xmlns="http://www.w3.org/2000/svg">
<rect width="48" height="50" rx="24" fill="#929292"/>
<path d="M24 32.1166C21.6131 32.1166 19.3239 31.2597 17.636 29.7344C15.9482 28.2091 15 26.1404 15 23.9833V17.8833C15 17.344 15.2371 16.8268 15.659 16.4455C16.081 16.0642 16.6533 15.85 17.25 15.85H30.75C31.3467 15.85 31.919 16.0642 32.341 16.4455C32.7629 16.8268 33 17.344 33 17.8833V23.9833C33 26.1404 32.0518 28.2091 30.364 29.7344C28.6761 31.2597 26.3869 32.1166 24 32.1166Z" fill="white" stroke="white" stroke-width="3" stroke-linecap="round" stroke-linejoin="round"/>
<path d="M19.5 31.0282V34.1459C19.5 34.6852 19.7371 35.2024 20.159 35.5837C20.581 35.965 21.1533 36.1793 21.75 36.1793H26.25C26.8467 36.1793 27.419 35.965 27.841 35.5837C28.2629 35.2024 28.5 34.6852 28.5 34.1459V31.0282M19.5 15.85V9.75ZM28.5 15.85V9.75ZM24 36.1833V40.25Z" fill="white"/>
<path d="M19.5 31.0282V34.1459C19.5 34.6852 19.7371 35.2024 20.159 35.5837C20.581 35.965 21.1533 36.1793 21.75 36.1793H26.25C26.8467 36.1793 27.419 35.965 27.841 35.5837C28.2629 35.2024 28.5 34.6852 28.5 34.1459V31.0282M19.5 15.85V9.75M28.5 15.85V9.75M24 36.1833V40.25" stroke="white" stroke-width="3" stroke-linecap="round" stroke-linejoin="round"/>
</svg>
